HIERARCHY
ROOT Hips
{
  OFFSET 0 0 0
  CHANNELS 6 Xposition Yposition Zposition Zrotation Yrotation Xrotation
  JOINT LeftThigh
  {
    OFFSET 8.409438 0 -5.917753
    CHANNELS 3 Zrotation Yrotation Xrotation
    JOINT LeftLeg
    {
      OFFSET 0 0 -42.358652
      CHANNELS 3 Zrotation Yrotation Xrotation
      JOINT LeftFoot
      {
        OFFSET 0 0 -39.357303
        CHANNELS 3 Zrotation Yrotation Xrotation
      }
    }
  }
  JOINT RightThigh
  {
    OFFSET -8.409438 0 -5.917753
    CHANNELS 3 Zrotation Yrotation Xrotation
    JOINT RightLeg
    {
      OFFSET 0 0 -42.358652
      CHANNELS 3 Zrotation Yrotation Xrotation
      JOINT RightFoot
      {
        OFFSET 0 0 -39.357303
        CHANNELS 3 Zrotation Yrotation Xrotation
      }
    }
  }
  JOINT SpineLow
  {
    OFFSET 0 0 4.719101
    CHANNELS 3 Zrotation Yrotation Xrotation
    JOINT SpineMid
    {
      OFFSET 0 0 12.899191
      CHANNELS 3 Zrotation Yrotation Xrotation
      JOINT Chest
      {
        OFFSET 0 0 12.899191
        CHANNELS 3 Zrotation Yrotation Xrotation
        JOINT LeftShoulder
        {
          OFFSET 7.550562 1.41573 9.438202
          CHANNELS 3 Zrotation Yrotation Xrotation
          JOINT LeftArm
          {
            OFFSET 9.155056 0 4.247191
            CHANNELS 3 Zrotation Yrotation Xrotation
            JOINT LeftForearm
            {
              OFFSET 0 0 25.771955
              CHANNELS 3 Zrotation Yrotation Xrotation
              JOINT LeftHand
              {
                OFFSET 0 0 25.197169
                CHANNELS 3 Zrotation Yrotation Xrotation
              }
            }
          }
        }
        JOINT RightShoulder
        {
          OFFSET -7.550562 1.41573 9.438202
          CHANNELS 3 Zrotation Yrotation Xrotation
          JOINT RightArm
          {
            OFFSET -9.155056 0 4.247191
            CHANNELS 3 Zrotation Yrotation Xrotation
            JOINT RightForearm
            {
              OFFSET 0 0 -25.771955
              CHANNELS 3 Zrotation Yrotation Xrotation
              JOINT RightHand
              {
                OFFSET 0 0 -25.197169
                CHANNELS 3 Zrotation Yrotation Xrotation
              }
            }
          }
        }
        JOINT Neck
        {
          OFFSET 0 0 15.101124
          CHANNELS 3 Zrotation Yrotation Xrotation
          JOINT Head
          {
            OFFSET 0 0 11.325843
            CHANNELS 3 Zrotation Yrotation Xrotation
            End Site
            {
              OFFSET 0 0 14.157303
            }
          }
        }
      }
    }
  }
}
MOTION
Frames: 8
Frame Time: 0.0
0.0  89.887642  0.0  3.149085  -0.457126  -90.967613  10.807585  -11.776903  1.884119  4.109748  1.94142  12.427414  -1.676289  0.339062  -2.019022  -23.653586  11.56286  -8.717507  -12.123409  6.801675  13.850605  5.420803  2.628722  0.41386  -2.6768  -0.005123  -0.031359  -7.316758  -0.017452  -0.085028  -7.316758  -0.017452  -0.085028  -13.328302  -20.451898  -3.005922  -39.228252  55.951131  11.981355  -1.859617  -38.53036  62.945025  110.2451  11.773802  32.460268  -15.37665  -1.001285  8.394897  55.08158  6.052605  61.40442  11.498264  -16.559155  -96.88778  82.629842  -22.414915  -10.785611  -9.349941  -6.729877  -25.979721  -7.307522  -4.661296  -19.570839  
0.0  89.887642  0.0  2.89314  -0.811694  -90.335647  8.969023  -11.734694  1.772124  5.535642  1.965759  12.060527  -1.421031  0.297375  -1.900061  -24.665932  11.266091  -9.343777  -11.442952  6.560673  13.691847  5.71886  2.524765  0.351495  -2.537365  -0.026023  -0.057065  -6.935572  -0.077024  -0.153055  -6.935572  -0.077024  -0.153055  -10.723629  -23.684252  -2.470106  -35.100741  52.891633  13.975552  3.903832  -34.91762  59.025456  109.021346  10.775148  25.716591  -15.193241  -1.075327  8.496412  55.074731  6.247331  61.845685  14.256963  -21.058752  -97.203427  84.789617  -19.957189  -9.706538  -9.516987  -7.3226  -26.436324  -7.463103  -5.093197  -19.920117  
0.0  89.887642  0.0  2.010116  -1.72928  -91.449881  7.681616  -12.472847  2.9608  6.590443  1.91472  12.047415  -1.009433  0.186794  -1.670537  -24.342523  11.253669  -7.860526  -10.864139  6.169768  13.388392  5.83953  2.342968  0.2912  -2.433323  -0.127238  0.125114  -6.651936  -0.334807  0.354383  -6.651936  -0.334807  0.354382  -8.262939  -26.368369  -2.103447  -27.926388  51.202808  18.678604  6.37567  -32.822579  55.49741  107.424895  9.090874  20.339642  -14.201346  -1.070644  8.543908  55.105345  6.326403  62.147372  14.625262  -21.9965  -96.745933  87.091615  -18.92286  -9.594825  -9.421677  -7.561994  -26.43835  -7.401485  -5.277311  -19.922294  
0.0  89.887642  0.0  1.553911  -3.271924  -92.505436  7.337163  -12.591831  4.00886  7.657682  1.632992  12.192193  -0.582008  0.074298  -1.401343  -22.890582  11.571629  -6.376471  -10.619307  5.817499  12.883812  5.826665  2.121087  0.270063  -2.160571  -0.1968  0.247121  -5.907755  -0.515368  0.692446  -5.907755  -0.515368  0.692446  -8.749454  -28.075181  -1.579871  -17.101225  51.23208  27.666267  8.340699  -33.077467  49.641007  105.09889  7.761865  17.36102  -13.634188  -1.064669  8.74662  55.134157  6.398596  62.102751  13.692464  -20.309443  -96.191439  88.299395  -18.825882  -10.458602  -9.71685  -7.400219  -26.152715  -7.612496  -5.147252  -19.710964  
0.0  89.887642  0.0  1.107778  -4.219766  -92.492359  7.079078  -12.397087  4.01833  8.733993  1.164939  12.285691  -0.372561  -0.047842  -1.181375  -21.789729  11.351836  -5.785158  -10.703125  5.567172  12.298917  5.675059  1.915805  0.269891  -1.951789  -0.356962  0.175071  -5.33792  -0.960861  0.507011  -5.337919  -0.960861  0.507011  -9.80734  -28.779008  -1.292696  -7.352208  52.748413  36.62514  9.628346  -34.901461  43.366622  104.06975  7.294759  15.945477  -13.530143  -0.93846  8.940028  55.501196  6.501151  61.905767  12.480092  -18.563996  -95.644555  89.173108  -18.782798  -11.810859  -10.05783  -6.737  -25.715619  -7.835964  -4.640844  -19.381683  
0.0  89.887642  0.0  0.902305  -4.824594  -91.723637  7.692455  -11.950267  3.32238  9.103696  0.734929  12.185727  -0.37337  -0.19569  -1.025974  -20.758782  10.990505  -5.95655  -11.141546  5.488398  11.676401  5.474929  1.749099  0.253759  -1.725023  -0.432509  -0.058737  -4.714591  -1.185717  -0.129631  -4.714591  -1.185717  -0.129631  -10.854122  -29.29217  1.070215  -6.357098  53.893189  36.844304  10.056368  -36.497302  39.532477  103.559845  6.801842  14.570125  -13.801729  -1.32836  9.576676  55.608017  6.518055  61.34808  11.554095  -17.307565  -95.390838  89.654163  -18.696763  -13.050952  -10.543254  -6.037403  -25.070056  -8.165055  -4.105161  -18.896032  
0.0  89.887642  0.0  0.765888  -5.258306  -91.307275  9.192362  -11.785975  3.019126  8.437924  0.544055  11.91007  -0.473002  -0.27689  -0.980186  -19.771651  10.741958  -5.864529  -12.040232  5.329529  11.097141  5.231156  1.56329  0.230251  -1.476159  -0.476483  -0.211859  -4.031214  -1.314779  -0.549835  -4.031214  -1.314779  -0.549835  -11.84825  -27.767082  3.664911  -11.590784  52.627849  31.829738  9.693421  -36.040767  38.577439  103.801757  7.303888  12.479253  -14.400581  -1.926242  10.153193  55.534982  6.466519  60.441569  11.27001  -16.974111  -95.368819  90.393103  -18.570547  -13.797347  -10.950805  -5.349432  -24.592203  -8.439297  -3.579523  -18.533704  
0.0  89.887642  0.0  0.501578  -5.444365  -91.236474  10.998985  -12.088955  2.995745  7.077804  0.564015  11.600257  -0.5902  -0.266372  -1.01063  -18.986983  10.429114  -5.329543  -12.620677  5.386382  10.395749  5.030167  1.458592  0.243726  -1.315577  -0.592127  -0.274254  -3.5899  -1.632865  -0.717316  -3.5899  -1.632865  -0.717316  -12.200254  -24.913559  2.781442  -16.397027  50.894841  28.878748  8.862109  -35.403064  39.647485  104.192311  8.307121  10.933891  -14.847642  -2.256364  10.293996  55.678714  6.317014  59.474169  11.026975  -16.991002  -95.262049  90.807594  -18.419308  -14.580436  -10.937379  -4.629267  -24.387797  -8.399656  -3.042174  -18.370736  
